<?xml version="1.0" encoding="UTF-8" standalone="no"?>
<!DOCTYPE svg PUBLIC "-//W3C//DTD SVG 20010904//EN"
              "http://www.w3.org/TR/2001/REC-SVG-20010904/DTD/svg10.dtd">

<svg xmlns="http://www.w3.org/2000/svg"
     width="1.66667in" height="0.333333in"
     viewBox="0 20 500 100">
  <path id="bottom"
        fill="orange" stroke="black" stroke-width="1"
        d="M -2.00,101.00
           C -2.00,101.00 501.50,101.00 501.50,101.00
             501.50,101.00 501.09,55.00 501.09,55.00
             501.09,55.00 -1.09,50.00 -1.09,50.00
             -1.09,50.00 -2.00,101.00 -2.00,101.00 Z"/>
	<path id="top"
        fill="yellow" stroke="black" stroke-width="1"
        d="M 500.14,56.98
           C 465.64,50.18 422.67,93.33 381.33,69.33
             340.00,45.33 291.67,64.00 223.00,71.33
             154.33,78.67 129.00,62.00 107.50,55.00
             77.00,47.00 53.75,65.06 30.50,68.50
             16.12,69.38 -0.10,56.95 -0.10,56.95
             -0.10,56.95 -5.27,47.73 -0.06,37.00
             56.67,19.33 118.67,23.00 161.00,26.33
             203.33,29.67 301.50,45.50 353.00,37.67
             415.50,25.50 440.50,55.00 499.75,36.75
             503.64,48.36 502.36,46.36 500.14,56.98 Z"/>
</svg>
