<?xml version="1.0" encoding="UTF-8" standalone="no"?>
<!DOCTYPE svg PUBLIC "-//W3C//DTD SVG 20010904//EN"
              "http://www.w3.org/TR/2001/REC-SVG-20010904/DTD/svg10.dtd">

<svg xmlns="http://www.w3.org/2000/svg"
     width="1.66667in" height="0.333333in"
     viewBox="0 30 500 100">
  <path id="Neimenovano"
        fill="white" stroke="black" stroke-width="1"
        d="M -1.02,43.03
           C -1.02,43.03 16.67,91.00 69.00,45.00
             109.00,79.33 122.67,78.67 142.67,46.67
             167.33,76.33 191.00,76.33 210.67,46.00
             223.00,73.67 267.33,78.67 280.33,47.33
             296.67,73.17 328.50,84.59 360.00,47.09
             368.55,71.45 404.18,79.64 428.50,48.00
             443.82,74.55 476.00,79.00 499.97,45.01
             504.18,44.73 501.25,-1.50 501.25,-1.50
             501.25,-1.50 -1.45,-1.27 -1.45,-1.27
             -1.45,-1.27 -1.02,43.03 -1.02,43.03 Z" />
</svg>
